<?xml version="1.0" standalone="no"?><!DOCTYPE svg PUBLIC "-//W3C//DTD SVG 1.1//EN" "http://www.w3.org/Graphics/SVG/1.1/DTD/svg11.dtd"><svg t="1641866727489" class="icon" viewBox="0 0 1024 1024" version="1.1" xmlns="http://www.w3.org/2000/svg" p-id="2529" xmlns:xlink="http://www.w3.org/1999/xlink" width="200" height="200"><defs><style type="text/css"></style></defs><path d="M475.428571 182.857143l0 402.285714q0 59.428571-23.142857 113.428571t-62.571429 93.428571-93.428571 62.571429-113.428571 23.142857l-36.571429 0q-14.857143 0-25.714286-10.857143t-10.857143-25.714286l0-73.142857q0-14.857143 10.857143-25.714286t25.714286-10.857143l36.571429 0q60.571429 0 103.428571-42.857143t42.857143-103.428571l0-18.285714q0-22.857143-16-38.857143t-38.857143-16l-128 0q-45.714286 0-77.714286-32t-32-77.714286l0-219.428571q0-45.714286 32-77.714286t77.714286-32l219.428571 0q45.714286 0 77.714286 32t32 77.714286zm512 0l0 402.285714q0 59.428571-23.142857 113.428571t-62.571429 93.428571-93.428571 62.571429-113.428571 23.142857l-36.571429 0q-14.857143 0-25.714286-10.857143t-10.857143-25.714286l0-73.142857q0-14.857143 10.857143-25.714286t25.714286-10.857143l36.571429 0q60.571429 0 103.428571-42.857143t42.857143-103.428571l0-18.285714q0-22.857143-16-38.857143t-38.857143-16l-128 0q-45.714286 0-77.714286-32t-32-77.714286l0-219.428571q0-45.714286 32-77.714286t77.714286-32l219.428571 0q45.714286 0 77.714286 32t32 77.714286z" p-id="2530"></path></svg>