<?xml version="1.0" standalone="no"?><!DOCTYPE svg PUBLIC "-//W3C//DTD SVG 1.1//EN" "http://www.w3.org/Graphics/SVG/1.1/DTD/svg11.dtd"><svg t="1641866713452" class="icon" viewBox="0 0 1024 1024" version="1.1" xmlns="http://www.w3.org/2000/svg" p-id="2397" xmlns:xlink="http://www.w3.org/1999/xlink" width="200" height="200"><defs><style type="text/css"></style></defs><path d="M928 512h-160v-128c0-70.6 57.4-128 128-128h16c26.6 0 48-21.4 48-48V112c0-26.6-21.4-48-48-48h-16c-176.8 0-320 143.2-320 320v480c0 53 43 96 96 96h256c53 0 96-43 96-96V608c0-53-43-96-96-96z m-576 0H192v-128c0-70.6 57.4-128 128-128h16c26.6 0 48-21.4 48-48V112c0-26.6-21.4-48-48-48h-16C143.2 64 0 207.2 0 384v480c0 53 43 96 96 96h256c53 0 96-43 96-96V608c0-53-43-96-96-96z" p-id="2398"></path></svg>