<?xml version="1.0" standalone="no"?><!DOCTYPE svg PUBLIC "-//W3C//DTD SVG 1.1//EN" "http://www.w3.org/Graphics/SVG/1.1/DTD/svg11.dtd"><svg t="1642106540521" class="icon" viewBox="0 0 1024 1024" version="1.1" xmlns="http://www.w3.org/2000/svg" p-id="6422" width="32" height="32" xmlns:xlink="http://www.w3.org/1999/xlink"><defs><style type="text/css"></style></defs><path d="M1024 307.2a102.4 102.4 0 1 1-204.8 0 102.4 102.4 0 0 1 204.8 0z m-87.381333 504.490667a17.066667 17.066667 0 0 0-22.528-7.509334 183.637333 183.637333 0 0 1-155.648 17.066667L326.314667 604.842667 512 512v-204.8l102.4 51.2v204.8l102.4 51.2 102.4-51.2-102.4-51.2V204.8l-204.8-102.4-102.4 51.2v307.2L223.914667 553.642667 41.642667 462.848a17.066667 17.066667 0 1 0-15.018667 30.72l716.8 358.4c21.572267 9.216 44.8512 13.653333 68.266667 12.970667a262.144 262.144 0 0 0 117.418666-30.037334 17.066667 17.066667 0 0 0 7.714134-22.869333l-0.2048-0.341333z" fill="#1afa29" p-id="6423"></path></svg>